<svg id="LOGOBASELINE_NOIR" xmlns="http://www.w3.org/2000/svg" viewBox="0 0 7973 2845.72"><defs><style>.cls-1{fill:#fff;}.cls-2{fill:#0f0a00;}</style></defs><title>Plan de travail 1 copie 2</title><path class="cls-1" d="M2335.34,1636.08H1813.05l-101.6,319.09h-88.11l394.5-1205.72h110.33l395.29,1205.72h-85.73Zm-24.61-78.58L2076.58,827.24H2071L1838.45,1557.5Z"/><path class="cls-1" d="M3588.72,1103.47c0,197.64-150,354-375.45,354H2835.44v497.68h-85.73V749.46h463.55C3438.7,749.46,3588.72,907.42,3588.72,1103.47Zm-92.87,0c0-159.54-111.92-281.78-290.52-281.78H2835.44v561.18h369.89C3383.93,1382.87,3495.85,1266.19,3495.85,1103.47Z"/><path class="cls-1" d="M3737.18,1606.71l82.55-20.64c2.38,186.53,173.83,308.77,394.5,308.77,165.89,0,338.93-67.47,331.79-254.8-7.14-180.18-175.42-218.28-373.86-265.91-208-50-391.32-100.81-391.32-320.68,0-223.84,191.3-319.88,397.67-319.88,211.93,0,401.64,100,433.39,303.21l-83.35,23c-23-174.63-192.09-250-352.43-250-150.81,0-311.15,66.67-311.15,239.71,0,168.28,146.05,211.14,328.61,253.21,215.11,49.21,438.95,96.84,438.95,341.32,0,229.39-196.85,327-421.49,327C3936.42,1971,3751.47,1825.79,3737.18,1606.71Z"/><path class="cls-1" d="M4881,1572.58V749.46h86.52v811.22c0,215.9,158.75,335,366.72,335s371.48-120.65,371.48-335V749.46h85.73v823.12c0,235.75-197.65,398.47-457.2,398.47C5076.28,1971,4881,1808.33,4881,1572.58Z"/><path class="cls-1" d="M6710.67,1879.77v75.41H6130.43V749.46h85.73V1879.77Z"/><path class="cls-1" d="M7006,824.86v489.75h509.59v77H7006v488.16h581v75.41H6920.24V749.46H7587v75.41Z"/><path class="cls-2" d="M1402.17,1746.83c-214.56,244.54-571.46,282.23-816,67.67S317.34,1227.78,531.9,983.24Z"/><path class="cls-1" d="M1381.89,911.41c-48.1-42.17-102-77.6-160.75-103.09-29.79-12.93-60.19-24.11-91.6-32.42a654.06,654.06,0,0,0-94.43-17.18c-61-6.85-122.59-3.74-182.89,7.27-60.72,11.09-119.73,31.87-174.52,60.23a623,623,0,0,0-152.79,112c-46.12,46-85.74,99.65-114.88,158-27.9,55.86-47.54,115.82-56.13,177.72-4.45,32-7.06,64.09-6.41,96.44a627,627,0,0,0,9.77,96.25c10.82,61.35,32,120.88,60.61,176.15,29.84,57.56,69.14,110.69,114.59,156.87Q549,1816.41,566.66,1832c6.89,6.07,15.91,11,25.46,10.54,9.19-.41,19.17-3.4,25.46-10.54l20.53-23.36,55.65-63.32L776,1651.7l100.32-114.15,109.88-125L1097.43,1286l103.1-117.3,87.63-99.7,62.64-71.27c9.95-11.32,19.93-22.6,29.84-33.95l1.26-1.43c6.35-7.22,10.54-15.61,10.54-25.46,0-8.83-3.92-19.38-10.54-25.46-13.61-12.49-37.64-15.11-50.91,0l-20.53,23.36-55.65,63.32-82.25,93.58-100.32,114.15-109.88,125L851.12,1457.39,748,1574.7l-87.63,99.7-62.64,71.27c-9.94,11.31-20,22.54-29.84,33.95l-1.26,1.43h50.91a648.11,648.11,0,0,1-83.8-89.06l5.63,7.29A613.51,613.51,0,0,1,460.11,1564l3.63,8.6a584.39,584.39,0,0,1-40.64-148.09l1.29,9.57a561.09,561.09,0,0,1-.16-147.92l-1.29,9.57a551.31,551.31,0,0,1,37.89-139.23l-3.63,8.6a569.06,569.06,0,0,1,73.75-126l-5.63,7.29a599.73,599.73,0,0,1,107-106.95L625,945.09A594.23,594.23,0,0,1,756.28,868.6l-8.6,3.63A599.45,599.45,0,0,1,899.45,831l-9.57,1.29a599.83,599.83,0,0,1,158,0l-9.57-1.29a591.43,591.43,0,0,1,150,40.93l-8.6-3.63A589.28,589.28,0,0,1,1309.25,944l-7.29-5.63q14.87,11.51,29,23.92c7.24,6.34,15.59,10.54,25.46,10.54,8.83,0,19.38-3.92,25.46-10.54C1394.37,948.73,1397,924.67,1381.89,911.41Z"/><path class="cls-1" d="M468.86,2398.28v16.31H343.4V2153.87h18.54v244.41Z"/><path class="cls-1" d="M636.21,2292v122.55H619l-.34-33.47c-12.87,27.46-41.54,37.07-67.28,37.07-32.61,0-58.7-16-58.7-49.77,0-34.33,27.12-48.74,73.63-54.75l51.83-6.52v-18c0-28-24-41.71-52.18-41.71-27.46,0-52.18,13.22-52,43.77l-17.34-5.32c1.89-35.7,31.24-53.72,69.86-53.72C605.66,2232.14,636.21,2250.5,636.21,2292ZM618,2321l-53.55,7.72c-35,5.15-53.21,14.59-53.21,39.3,0,24.89,19.05,35.19,46.17,35.19C606,2403.26,618.19,2371,618,2321Z"/><path class="cls-1" d="M947.56,2324.65c0,56-26.95,93.37-75.52,93.37-33.81,0-53.89-17.85-66.08-47l-.17,43.6H788.11V2153.87H806l.34,123.75c11.84-27.81,31.58-46,65.74-46C921.3,2231.62,947.56,2269.55,947.56,2324.65Zm-17.85,0c0-45.66-20.25-77.58-60.76-77.58-41.71,0-64,34.67-64,77.58,0,43.08,22.31,77.58,64,77.58C909.46,2402.23,929.71,2370.47,929.71,2324.65Z"/><path class="cls-1" d="M983.43,2324.65c0-56.13,30.72-93,79.81-93,49.26,0,79.64,36.9,79.64,93,0,56.64-30.38,93.37-79.64,93.37C1014.5,2418,983.43,2381.29,983.43,2324.65Zm142.11,0c0-47.37-23.86-77.41-62.3-77.41-38.62,0-62.13,30-62.13,77.41,0,47.71,23.51,77.92,62.13,77.92C1101.69,2402.57,1125.55,2372.36,1125.55,2324.65Z"/><path class="cls-1" d="M1326.88,2235.22v179.36h-18l-.17-26.09c-11.16,18.88-31.24,29.52-56.3,29.52-35.19,0-64.36-21.11-64.36-62.13V2235.22h18.19v116.71c0,35.7,23,50.63,49.77,50.63,30.38,0,52.69-18.71,52.69-53.38v-114Z"/><path class="cls-1" d="M1400.34,2371.5V2249.81h-41.71v-14.59h41.71v-61.45h17.85v61.45h49.09v14.59h-49.09v120.32c0,18.71,11.5,29.69,30.89,29.69h18.19v14.76h-20.6C1419.39,2414.59,1400.34,2399,1400.34,2371.5Z"/><path class="cls-1" d="M1499.71,2165.37c0-8.41,8.07-14.93,16.82-14.93,9.1,0,16.82,6.52,16.82,14.93,0,8.24-7.72,15.28-16.82,15.28C1507.78,2180.64,1499.71,2173.61,1499.71,2165.37Zm7.38,69.86h18.19v179.36h-18.19Z"/><path class="cls-1" d="M1734.34,2235.22v272.22H1716V2372.53c-11.67,26.6-31.75,45.48-63.85,45.48-51.32,0-76.89-36.73-76.89-93.37,0-56.13,25.57-93,76.89-93,32.1,0,52.18,18.71,64,45.66l.51-42.05Zm-16.82,89.42c0-42.57-23.34-77.06-63-77.06-42.05,0-61.62,29.69-61.62,77.06,0,47.71,19.57,77.58,61.62,77.58C1694.18,2402.23,1717.52,2367.73,1717.52,2324.65Z"/><path class="cls-1" d="M1932.24,2235.22v179.36h-18l-.17-26.09c-11.16,18.88-31.24,29.52-56.3,29.52-35.19,0-64.36-21.11-64.36-62.13V2235.22h18.19v116.71c0,35.7,23,50.63,49.77,50.63,30.38,0,52.69-18.71,52.69-53.38v-114Z"/><path class="cls-1" d="M1998.49,2326.36c0,51.15,24.54,76.21,62.13,76.21,30.38,0,46.69-18.19,56.3-45.83l16.13,5.84c-12,33.3-34.67,55.44-72.09,55.44-49.6,0-79.47-34.67-79.47-93.37,0-58,30.38-92.86,79.12-92.86,47.71,0,74.32,30.89,74.32,88.56l-.34,6Zm.51-14.42h118.26c-1.37-43.94-20.6-65.39-56.64-65.39C2024.92,2246.55,2002.44,2269.38,1999,2311.95Z"/><path class="cls-1" d="M2280.14,2326.36c0,51.15,24.54,76.21,62.13,76.21,30.38,0,46.69-18.19,56.3-45.83l16.13,5.84c-12,33.3-34.67,55.44-72.09,55.44-49.6,0-79.47-34.67-79.47-93.37,0-58,30.38-92.86,79.12-92.86,47.71,0,74.32,30.89,74.32,88.56l-.34,6Zm.51-14.42h118.26c-1.37-43.94-20.6-65.39-56.64-65.39C2306.58,2246.55,2284.09,2269.38,2280.66,2311.95Zm67.11-110h-15.62l40.51-45.14h25.06Z"/><path class="cls-1" d="M2625.13,2324.65c0,56.64-25.75,93.37-76.89,93.37-32.27,0-52.35-19.05-64-46v135.42H2466V2235.22h17.68l.51,42.39c11.67-27.12,31.58-46,64-46C2599.39,2231.62,2625.13,2268.52,2625.13,2324.65Zm-17.51,0c0-47.37-19.91-77.06-61.79-77.06-39.82,0-63,34.5-63,77.06,0,43.08,23.17,77.58,63,77.58C2587.72,2402.23,2607.63,2372.36,2607.63,2324.65Z"/><path class="cls-1" d="M2814.1,2293.58v121h-18.19V2297.7c0-36-22.83-50.46-49.09-50.46-30.55,0-53.38,19.05-53.38,53.21v114.14h-18.19V2153.87h18.19v107.62c11.16-19.05,31.24-29.86,56.47-29.86C2785.27,2231.62,2814.1,2252.9,2814.1,2293.58Z"/><path class="cls-1" d="M2876.58,2326.36c0,51.15,24.54,76.21,62.13,76.21,30.38,0,46.69-18.19,56.3-45.83l16.13,5.84c-12,33.3-34.67,55.44-72.09,55.44-49.6,0-79.47-34.67-79.47-93.37,0-58,30.38-92.86,79.12-92.86,47.71,0,74.32,30.89,74.32,88.56l-.34,6Zm.51-14.42h118.26c-1.37-43.94-20.6-65.39-56.64-65.39C2903,2246.55,2880.53,2269.38,2877.1,2311.95Zm67.11-110h-15.62l40.51-45.14h25.06Z"/><path class="cls-1" d="M3305.16,2290.84v123.75h-17.68V2294.27c0-32.61-19.57-47-44.63-47-28.32,0-49.6,16.82-49.6,48.57v118.77h-18V2296.33c0-33.81-19.22-49.09-45.31-49.09-28,0-49.77,16.82-49.77,48.4v118.94h-17.85V2235.22h17.85v25.92c10.3-18.71,29.35-29.52,53.38-29.52,23.34,0,44.45,11,54.07,32.44,10.3-20.42,30.89-32.44,56.47-32.44C3277.69,2231.62,3305.16,2252.56,3305.16,2290.84Z"/><path class="cls-1" d="M3368,2326.36c0,51.15,24.54,76.21,62.13,76.21,30.38,0,46.69-18.19,56.3-45.83l16.13,5.84c-12,33.3-34.67,55.44-72.09,55.44-49.6,0-79.47-34.67-79.47-93.37,0-58,30.38-92.86,79.12-92.86,47.71,0,74.32,30.89,74.32,88.56l-.34,6Zm.51-14.42h118.26c-1.37-43.94-20.6-65.39-56.64-65.39C3394.41,2246.55,3371.92,2269.38,3368.49,2311.95Zm51.15-110-49.95-45.14h25.06l40.68,45.14Z"/><path class="cls-1" d="M3633,2233.34v17.51c-35.87,0-61.45,19.05-61.45,61.1v102.64h-17.85V2235.22h18.37v35C3582,2246.38,3605.69,2233.68,3633,2233.34Z"/><path class="cls-1" d="M3668.34,2326.36c0,51.15,24.54,76.21,62.13,76.21,30.38,0,46.69-18.19,56.3-45.83l16.13,5.84c-12,33.3-34.67,55.44-72.09,55.44-49.6,0-79.47-34.67-79.47-93.37,0-58,30.38-92.86,79.12-92.86,47.71,0,74.32,30.89,74.32,88.56l-.34,6Zm.51-14.42h118.26c-1.37-43.94-20.6-65.39-56.64-65.39C3694.77,2246.55,3672.29,2269.38,3668.85,2311.95Z"/><path class="cls-1" d="M4093,2153.87v260.72h-17.68l-.17-43.6c-12.19,29.18-32.1,47-66.08,47-48.4,0-75.52-37.42-75.52-93.37,0-55.1,26.43-93,75.52-93,34.16,0,53.89,18.19,65.74,46l.34-123.75Zm-16.82,170.78c0-42.91-22.31-77.58-64-77.58-40.51,0-60.59,31.92-60.59,77.58,0,45.83,20.08,77.58,60.59,77.58C4053.83,2402.23,4076.15,2367.73,4076.15,2324.65Z"/><path class="cls-1" d="M4159.39,2326.36c0,51.15,24.54,76.21,62.13,76.21,30.38,0,46.69-18.19,56.3-45.83l16.13,5.84c-12,33.3-34.67,55.44-72.09,55.44-49.6,0-79.47-34.67-79.47-93.37,0-58,30.38-92.86,79.12-92.86,47.71,0,74.32,30.89,74.32,88.56l-.34,6Zm.51-14.42h118.26c-1.37-43.94-20.6-65.39-56.64-65.39C4185.82,2246.55,4163.34,2269.38,4159.91,2311.95Z"/><path class="cls-1" d="M4328.8,2362.06l17.68-4.63c.17,27.29,23,45.66,56.47,45.66,23.86,0,49.43-8.93,48.4-35.36-.69-24.2-22.48-29.69-54.92-37.42-30.21-7.21-60.59-15.62-60.59-49.77,0-33.81,30.21-48.4,63.33-48.4,36.73,0,66.77,17.51,68.14,53l-17.16,5.49c.34-30.38-24.72-43.94-50.46-43.94-21.11,0-45.83,9.1-45.83,33.64,0,24.37,23.86,30,49.77,35.87,31.24,7,65.91,14.59,65.91,51.49,0,35.7-31.24,50.29-65.91,50.29C4361.41,2418,4331.54,2396.73,4328.8,2362.06Z"/><path class="cls-1" d="M4597.58,2324.65c0-56.3,32.78-93,79.81-93,37.76,0,67.45,23,72.43,60.59l-16.82,5c-3.26-31.07-26.43-49.95-55.61-49.95-37.07,0-62.13,30-62.13,77.41s25.06,77.58,62.13,77.58c29,0,52.52-18.88,55.44-50.12l17,5c-5,37.76-34.5,60.59-72.43,60.59C4630.36,2417.67,4597.58,2381.12,4597.58,2324.65Z"/><path class="cls-1" d="M4876.66,2233.34v17.51c-35.87,0-61.45,19.05-61.45,61.1v102.64h-17.85V2235.22h18.37v35C4825.68,2246.38,4849.37,2233.68,4876.66,2233.34Z"/><path class="cls-1" d="M4912,2326.36c0,51.15,24.54,76.21,62.13,76.21,30.38,0,46.69-18.19,56.3-45.83l16.13,5.84c-12,33.3-34.67,55.44-72.09,55.44-49.6,0-79.47-34.67-79.47-93.37,0-58,30.38-92.86,79.12-92.86,47.71,0,74.32,30.89,74.32,88.56l-.34,6Zm.51-14.42h118.26c-1.37-43.94-20.6-65.39-56.64-65.39C4938.45,2246.55,4916,2269.38,4912.53,2311.95Zm67.11-110H4964l40.51-45.14h25.06Z"/><path class="cls-1" d="M5227.66,2292v122.55h-17.16l-.34-33.47c-12.87,27.46-41.54,37.07-67.28,37.07-32.61,0-58.7-16-58.7-49.77,0-34.33,27.12-48.74,73.63-54.75l51.83-6.52v-18c0-28-24-41.71-52.18-41.71-27.46,0-52.18,13.22-52,43.77l-17.34-5.32c1.89-35.7,31.24-53.72,69.86-53.72C5197.1,2232.14,5227.66,2250.5,5227.66,2292Zm-18.19,29-53.55,7.72c-35,5.15-53.21,14.59-53.21,39.3,0,24.89,19.05,35.19,46.17,35.19C5197.45,2403.26,5209.63,2371,5209.46,2321Z"/><path class="cls-1" d="M5297.51,2371.5V2249.81H5255.8v-14.59h41.71v-61.45h17.85v61.45h49.09v14.59h-49.09v120.32c0,18.71,11.5,29.69,30.89,29.69h18.19v14.76h-20.6C5316.56,2414.59,5297.51,2399,5297.51,2371.5Z"/><path class="cls-1" d="M5407.7,2326.36c0,51.15,24.54,76.21,62.13,76.21,30.38,0,46.69-18.19,56.3-45.83l16.13,5.84c-12,33.3-34.67,55.44-72.09,55.44-49.6,0-79.47-34.67-79.47-93.37,0-58,30.38-92.86,79.12-92.86,47.71,0,74.32,30.89,74.32,88.56l-.34,6Zm.51-14.42h118.26c-1.37-43.94-20.6-65.39-56.64-65.39C5434.13,2246.55,5411.65,2269.38,5408.22,2311.95Z"/><path class="cls-1" d="M5728.32,2235.22v179.36h-18l-.17-26.09c-11.16,18.88-31.24,29.52-56.3,29.52-35.19,0-64.36-21.11-64.36-62.13V2235.22h18.19v116.71c0,35.7,23,50.63,49.77,50.63,30.38,0,52.69-18.71,52.69-53.38v-114Z"/><path class="cls-1" d="M5870.43,2233.34v17.51c-35.87,0-61.45,19.05-61.45,61.1v102.64h-17.85V2235.22h18.37v35C5819.46,2246.38,5843.14,2233.68,5870.43,2233.34Z"/><path class="cls-1" d="M5886.05,2362.06l17.68-4.63c.17,27.29,23,45.66,56.47,45.66,23.86,0,49.43-8.93,48.4-35.36-.69-24.2-22.48-29.69-54.92-37.42-30.21-7.21-60.59-15.62-60.59-49.77,0-33.81,30.21-48.4,63.33-48.4,36.73,0,66.77,17.51,68.14,53l-17.16,5.49c.34-30.38-24.72-43.94-50.46-43.94-21.11,0-45.83,9.1-45.83,33.64,0,24.37,23.86,30,49.77,35.87,31.24,7,65.91,14.59,65.91,51.49,0,35.7-31.24,50.29-65.91,50.29C5918.66,2418,5888.8,2396.73,5886.05,2362.06Z"/><path class="cls-1" d="M6358.05,2344.73c0,42.91-28.83,69.86-92.17,69.86H6177V2153.87h73.63c56.13,0,86.33,27.63,86.33,65.91,0,26.43-14.76,46.17-34,56C6336.43,2281.22,6358.05,2307.48,6358.05,2344.73Zm-108.47-174.38h-54.41v100.06h73.29c26.95,0,49.95-21.11,49.95-50.46C6318.41,2192.49,6299,2170.35,6249.58,2170.35Zm90.28,172.32c0-35-22.66-56.13-71.06-56.13h-73.63v111.56h68.65C6317.55,2398.11,6339.86,2377.85,6339.86,2342.67Z"/><path class="cls-1" d="M6393.75,2324.65c0-56.13,30.72-93,79.81-93,49.26,0,79.64,36.9,79.64,93,0,56.64-30.38,93.37-79.64,93.37C6424.82,2418,6393.75,2381.29,6393.75,2324.65Zm142.11,0c0-47.37-23.86-77.41-62.3-77.41-38.62,0-62.13,30-62.13,77.41,0,47.71,23.51,77.92,62.13,77.92C6512,2402.57,6535.87,2372.36,6535.87,2324.65Z"/><path class="cls-1" d="M6681.59,2233.34v17.51c-35.87,0-61.45,19.05-61.45,61.1v102.64h-17.85V2235.22h18.37v35C6630.61,2246.38,6654.3,2233.68,6681.59,2233.34Z"/><path class="cls-1" d="M6859.92,2153.87v260.72h-17.68l-.17-43.6c-12.19,29.18-32.1,47-66.08,47-48.4,0-75.52-37.42-75.52-93.37,0-55.1,26.43-93,75.52-93,34.16,0,53.89,18.19,65.74,46l.34-123.75Zm-16.82,170.78c0-42.91-22.31-77.58-64-77.58-40.51,0-60.59,31.92-60.59,77.58,0,45.83,20.08,77.58,60.59,77.58C6820.79,2402.23,6843.1,2367.73,6843.1,2324.65Z"/><path class="cls-1" d="M6926.34,2326.36c0,51.15,24.54,76.21,62.13,76.21,30.38,0,46.69-18.19,56.3-45.83l16.13,5.84c-12,33.3-34.67,55.44-72.09,55.44-49.6,0-79.47-34.67-79.47-93.37,0-58,30.38-92.86,79.12-92.86,47.71,0,74.32,30.89,74.32,88.56l-.34,6Zm.51-14.42h118.26c-1.37-43.94-20.6-65.39-56.64-65.39C6952.77,2246.55,6930.29,2269.38,6926.86,2311.95Z"/><path class="cls-1" d="M7112.22,2153.87h18.19v260.72h-18.19Z"/><path class="cls-1" d="M7323.34,2292v122.55h-17.16l-.34-33.47c-12.87,27.46-41.54,37.07-67.28,37.07-32.61,0-58.7-16-58.7-49.77,0-34.33,27.12-48.74,73.63-54.75l51.83-6.52v-18c0-28-24-41.71-52.18-41.71-27.46,0-52.18,13.22-52,43.77l-17.34-5.32c1.89-35.7,31.24-53.72,69.86-53.72C7292.79,2232.14,7323.34,2250.5,7323.34,2292Zm-18.19,29-53.55,7.72c-35,5.15-53.21,14.59-53.21,39.3,0,24.89,19.05,35.19,46.17,35.19C7293.13,2403.26,7305.31,2371,7305.14,2321Z"/><path class="cls-1" d="M7375.17,2165.37c0-8.41,8.07-14.93,16.82-14.93,9.1,0,16.82,6.52,16.82,14.93,0,8.24-7.72,15.28-16.82,15.28C7383.24,2180.64,7375.17,2173.61,7375.17,2165.37Zm7.38,69.86h18.19v179.36h-18.19Z"/><path class="cls-1" d="M7447.26,2362.06l17.68-4.63c.17,27.29,23,45.66,56.47,45.66,23.86,0,49.43-8.93,48.4-35.36-.69-24.2-22.48-29.69-54.92-37.42-30.21-7.21-60.59-15.62-60.59-49.77,0-33.81,30.21-48.4,63.33-48.4,36.73,0,66.77,17.51,68.14,53l-17.16,5.49c.34-30.38-24.72-43.94-50.46-43.94-21.11,0-45.83,9.1-45.83,33.64,0,24.37,23.86,30,49.77,35.87,31.24,7,65.91,14.59,65.91,51.49,0,35.7-31.24,50.29-65.91,50.29C7479.87,2418,7450,2396.73,7447.26,2362.06Z"/></svg>